<?xml version="1.0" encoding="utf-8"?>
<svg id="master-artboard" xmlns="http://www.w3.org/2000/svg" viewBox="0 80 450 400" width="600px" height="500px"><defs><radialGradient id="gradient-0" gradientUnits="objectBoundingBox" cx="0.5" cy="0.5" r="0.5">
                <stop offset="0" style="stop-color: rgb(11, 7, 38)"/>
                <stop offset="1" style="stop-color: #1700c7"/>
              </radialGradient></defs><g transform="matrix(0.26534998416900635, -0.24457353353500363, -0.24457353353500363, -0.26534998416900635, 248.89953599786168, 494.22441635360855)"><rect id="rect-1" x="0" y="0" width="1400" height="980" style="fill: white; fill-opacity: 0; pointer-events: none;"/><path d="M 371.6356201171875 449.53143310546875 L 371.6356201171875 449.53143310546875" style="fill: rgb(0, 0, 0); fill-opacity: 1; stroke: rgb(0, 0, 0); stroke-opacity: 1; stroke-width: 10; paint-order: fill;" transform="matrix(0.9865996507579714, 0, 0, 0.9865996507579714, 291.90146314537327, -17.547369907058112)"/><path d="M 1001.0010375976562 76.53782653808594 C 1001.0010375976562 76.53782653808594 685.87744140625 -25.510374069213867 644.4430541992188 375.5028991699219 C 633.1496960698968 484.8030919463382 619.35205078125 593.3330688476562 713.0462646484375 589.1220703125 C 806.740478515625 584.9110717773438 1003.076171875 549.74658203125 1173.3876953125 379.09930419921875 C 1343.69921875 208.4520263671875 1001.0010375976562 76.53782653808594 1001.0010375976562 76.53782653808594 Z" style="fill: rgb(30, 30, 47); fill-opacity: 0.64; stroke: rgb(0, 0, 0); stroke-opacity: 0.67; stroke-width: 0; paint-order: fill;" transform="matrix(1.7257258892059328, 0, 0, 1.7257258892059328, -1064.6395429063011, -79.21121885803018)"/><path d="M 873.7927856445312 785.3551025390625" style="fill: rgb(0, 0, 0); fill-opacity: 0.56; stroke: rgb(0, 0, 0); stroke-opacity: 0.67; stroke-width: 0; paint-order: stroke;" transform="matrix(1, 0, 0, 1, -314.7699062307892, -13.685648096990846)"/><path d="M 514.388671875 981.6722412109375" style="fill: rgb(11, 7, 38); fill-opacity: 0.64; stroke: rgb(0, 0, 0); stroke-opacity: 0.67; stroke-width: 0; paint-order: stroke;"/><path d="M 416.3638000488281 1037.3211669921875" style="fill: rgb(11, 7, 38); fill-opacity: 0.64; stroke: rgb(0, 0, 0); stroke-opacity: 0.67; stroke-width: 0; paint-order: stroke;"/></g><g transform="matrix(0.3571428656578064, 0, 0, 0.3571428656578064, 54.90595475899585, 76.89329363875666)"><rect id="ee-background" x="0" y="0" width="1400" height="980" style="fill: white; fill-opacity: 0; pointer-events: none;"/><path d="M 371.6356201171875 449.53143310546875 L 371.6356201171875 449.53143310546875" style="fill: rgb(0, 0, 0); fill-opacity: 1; stroke: rgb(0, 0, 0); stroke-opacity: 1; stroke-width: 10; paint-order: fill;" transform="matrix(0.9865996507579714, 0, 0, 0.9865996507579714, 291.90146314537327, -17.547369907058112)"/><path d="M 1001.0010375976562 76.53782653808594 C 1001.0010375976562 76.53782653808594 685.87744140625 -25.510374069213867 644.4430541992188 375.5028991699219 C 633.1496960698968 484.8030919463382 619.35205078125 593.3330688476562 713.0462646484375 589.1220703125 C 806.740478515625 584.9110717773438 1003.076171875 549.74658203125 1173.3876953125 379.09930419921875 C 1343.69921875 208.4520263671875 1001.0010375976562 76.53782653808594 1001.0010375976562 76.53782653808594 Z" style="fill: rgb(77, 210, 255); fill-opacity: 0.25; stroke: rgb(0, 0, 0); stroke-opacity: 0.67; stroke-width: 0; paint-order: fill;" transform="matrix(1.7257258892059328, 0, 0, 1.7257258892059328, -1064.6395429063011, -79.21121885803018)"/><path d="M 873.7927856445312 785.3551025390625" style="fill: rgb(0, 0, 0); fill-opacity: 0.56; stroke: rgb(0, 0, 0); stroke-opacity: 0.67; stroke-width: 0; paint-order: stroke;" transform="matrix(1, 0, 0, 1, -314.7699062307892, -13.685648096990846)"/></g></svg>